# xmcd CD database file
#
# Track frame offsets:
#	150
#	16967
#	43501
#	63458
#	77662
#	90487
#	101993
#	118665
#	137982
#	157347
#	175237
#	201161
#	226727
#
# Disc length: 3366 seconds
#
# Revision: 2
# Processed by: cddbd v1.5.2PL0 Copyright (c) Steve Scherf et al.
# Submitted via: CDex 1.70beta2
#
DISCID=ae0d240d
DTITLE=Miles Davis - The Complete Recordings 1945 - 1960 - CD 01: Early Miles Vol. 2 (MP3)
DYEAR=1948
DGENRE=Jazz
TTITLE0=Miles Davis Nonet - Why Do I Love You
TTITLE1=Miles Davis Nonet - Godchild
TTITLE2=Miles Davis Nonet - S'il Vou Plait
TTITLE3=Miles Davis Nonet - Moon Dreams
TTITLE4=Miles Davis Nonet - Hallucinations (aka Budo)
TTITLE5=Miles Davis Nonet - Move (Mood)
TTITLE6=Miles Davis Nonet - Moon Dreams
TTITLE7=Miles Davis Nonet - Hallucinations (Budo)
TTITLE8=Miles Davis Nonet - Darn That Dream
TTITLE9=Miles Davis Quintet - 52nd Street Theme (The Broadway Theme)
TTITLE10=Miles Davis Quintet - Half Nelson
TTITLE11=Miles Davis Quintet - You Go To My Head
TTITLE12=Miles Davis Quintet - Chasin' The Bird
EXTD=YEAR: 1948
EXTT0=
EXTT1=
EXTT2=
EXTT3=
EXTT4=
EXTT5=
EXTT6=
EXTT7=
EXTT8=
EXTT9=
EXTT10=
EXTT11=
EXTT12=
PLAYORDER=
